<svg preserveAspectRatio="none" width="100%" height="100%" overflow="visible" style="display: block;" viewBox="0 0 224 37.5586" fill="none" xmlns="http://www.w3.org/2000/svg">
<g id="Group">
<path id="Vector" d="M11.4301 0.435444C26.018 0.435444 32.8761 7.50067 32.8761 18.8897C32.8761 30.2787 26.018 37.1231 11.4301 37.1231H0V0.435444H11.4301ZM11.5947 36.1357C20.0317 36.1357 23.8966 29.4016 23.8966 18.8897C23.8966 8.37769 20.0256 1.36766 11.5947 1.36766C10.8876 1.36766 9.47329 1.47806 8.43696 1.58845V35.921C9.47329 36.0866 10.8876 36.1418 11.5947 36.1418V36.1357Z" fill="var(--fill-0, #0C0C0C)"/>
<path id="Vector_2" d="M37.0031 18.7793C37.0031 7.27988 42.8797 0 55.2365 0C67.5932 0 73.4698 7.27988 73.4698 18.7793C73.4698 30.2787 67.6481 37.5586 55.2365 37.5586C42.8249 37.5586 37.0031 30.2235 37.0031 18.7793ZM55.2365 36.5773C61.6617 36.5773 64.4903 28.8006 64.4903 18.7793C64.4903 8.75794 61.6617 0.987415 55.2365 0.987415C48.8112 0.987415 45.9826 8.70887 45.9826 18.7854C45.9826 28.8619 48.8112 36.5834 55.2365 36.5834V36.5773Z" fill="var(--fill-0, #0C0C0C)"/>
<path id="Vector_3" d="M79.6207 0.435444H90.9411C104.115 0.435444 108.845 4.48936 108.845 11.0026C108.845 15.768 106.285 19.1595 99.8658 20.6928L108.681 37.117H99.7012L93.7697 21.4594C92.898 21.5146 91.9165 21.5698 90.8863 21.5698H88.0577V37.1231H79.6207V0.435444ZM90.8863 20.6437C97.2018 20.6437 99.8658 16.8658 99.8658 11.0088C99.8658 5.15173 97.1957 1.37379 90.8863 1.37379C90.2889 1.37379 88.71 1.48419 88.0577 1.59458V20.4291C88.71 20.5395 90.2889 20.6498 90.8863 20.6498V20.6437Z" fill="var(--fill-0, #0C0C0C)"/>
<path id="Vector_4" d="M123.317 0.435444H134.802L145.903 37.1231H137.631L135.619 29.4568H122.5L120.544 37.1231H112.216L123.317 0.435444ZM135.235 27.8132L129.084 4.92481L122.933 27.8132H135.235Z" fill="var(--fill-0, #0C0C0C)"/>
<path id="Vector_5" d="M161.96 0.435444C176.548 0.435444 183.406 7.50067 183.406 18.8897C183.406 30.2787 176.548 37.1231 161.96 37.1231H150.53V0.435444H161.96ZM162.119 36.1357C170.556 36.1357 174.421 29.4016 174.421 18.8897C174.421 8.37769 170.556 1.36766 162.119 1.36766C161.412 1.36766 159.997 1.47806 158.961 1.58845V35.921C159.997 36.0866 161.412 36.1418 162.119 36.1418V36.1357Z" fill="var(--fill-0, #0C0C0C)"/>
<path id="Vector_6" d="M187.533 18.7793C187.533 7.27988 193.41 0 205.767 0C218.123 0 224 7.27988 224 18.7793C224 30.2787 218.178 37.5586 205.767 37.5586C193.355 37.5586 187.533 30.2235 187.533 18.7793ZM205.767 36.5773C212.192 36.5773 215.02 28.8006 215.02 18.7793C215.02 8.75794 212.192 0.981282 205.767 0.981282C199.341 0.981282 196.513 8.70274 196.513 18.7793C196.513 28.8558 199.341 36.5773 205.767 36.5773Z" fill="var(--fill-0, #0C0C0C)"/>
</g>
</svg>
