<svg preserveAspectRatio="none" width="100%" height="100%" overflow="visible" style="display: block;" viewBox="0 0 88 88" fill="none" xmlns="http://www.w3.org/2000/svg">
<g id="Group">
<path id="Vector" d="M68.2002 44L31.9002 66V22L68.2002 44Z" fill="var(--fill-0, white)"/>
<path id="Vector_2" d="M44 4.4C34.8644 4.40667 26.0119 7.57085 18.9419 13.3566C11.8719 19.1424 7.01903 27.194 5.20531 36.1478C3.39159 45.1016 4.72849 54.4071 8.98956 62.4881C13.2506 70.5691 20.1739 76.9289 28.5868 80.4903C38.2646 84.5781 49.17 84.654 58.9038 80.7013C68.6376 76.7486 76.4025 69.091 80.4903 59.4132C84.5781 49.7354 84.654 38.83 80.7013 29.0962C76.7486 19.3624 69.091 11.5975 59.4132 7.5097C54.537 5.4467 49.2946 4.38902 44 4.4ZM44 0C52.7024 0 61.2093 2.58056 68.4451 7.41534C75.6809 12.2501 81.3204 19.122 84.6507 27.1619C87.981 35.2019 88.8523 44.0488 87.1546 52.584C85.4568 61.1191 81.2662 68.9592 75.1127 75.1127C68.9592 81.2662 61.1191 85.4568 52.584 87.1546C44.0488 88.8523 35.2019 87.981 27.1619 84.6507C19.122 81.3204 12.2501 75.6809 7.41534 68.4451C2.58056 61.2093 0 52.7024 0 44C0 32.3305 4.6357 21.1389 12.8873 12.8873C21.1389 4.6357 32.3305 0 44 0Z" fill="var(--fill-0, white)"/>
</g>
</svg>
